<svg width="62.592" height="62.668" viewBox="0 0 256 267" fill="none" xmlns="http://www.w3.org/2000/svg">
<path d="M161.832 116.347H161.837V110.179L161.832 110.184V116.347Z" fill="#E6E6FF"/>
<path d="M183.511 66.0204V102.332C190.477 91.6824 194.211 79.2326 194.211 66.2076V66.0204H183.511Z" fill="#E6E6FF"/>
<path d="M85.3271 101.674C85.3003 101.642 85.2763 101.613 85.2495 101.581L85.2442 101.575C77.2805 91.9639 72.4894 79.6345 72.4894 66.2082C72.4894 35.6936 97.2419 10.8475 127.722 10.7003V0C110.141 0.0695521 93.6199 6.95253 81.1834 19.3917C68.6774 31.8977 61.7891 48.5233 61.7891 66.2082C61.7891 82.141 67.3773 97.2124 77.6309 109.186C77.6309 109.189 77.6336 109.191 77.6362 109.194C77.663 109.224 77.6897 109.256 77.7138 109.285L77.7379 109.261L85.3271 101.674Z" fill="#E6E6FF"/>
<path d="M92.7187 109.059L85.1161 116.661C91.2982 121.934 98.3016 125.965 105.824 128.632V117.097C101.078 115.021 96.6778 112.301 92.7294 109.048L92.7187 109.059Z" fill="#E6E6FF"/>
<path d="M150.066 77.9972H139.026V131.507C142.8 130.881 146.489 129.929 150.066 128.669C150.077 128.666 150.085 128.661 150.095 128.658V117.128C150.095 117.128 150.077 117.136 150.066 117.142V77.9972Z" fill="#E6E6FF"/>
<path d="M127.904 10.8823V21.2081H127.81V21.3312H165.668L163.45 23.5488L156.078 30.924L155.933 31.0685L148.435 38.5641L127.81 59.1889L100.484 86.5176C96.3217 80.8491 93.8606 73.8591 93.8606 66.302C93.8606 47.5229 109.066 32.2268 127.81 32.077V21.374C126.775 21.3793 125.748 21.4221 124.731 21.497C101.519 23.2198 83.1603 42.6569 83.1603 66.302C83.1603 76.8097 86.785 86.4855 92.8548 94.1469L92.8601 94.1522C95.0243 96.8888 97.5014 99.366 100.238 101.53C100.238 101.53 100.24 101.532 100.243 101.535L105.826 95.9526L109.793 91.9854L135.667 66.1147L135.76 66.0211L155.695 46.0891L155.829 45.9553L170.844 30.9374L173.059 28.7224V66.0211H183.508V10.8823H127.904Z" fill="#E6E6FF"/>
<path d="M85.015 116.572C83.6988 115.446 82.4228 114.263 81.1842 113.025C79.9751 111.816 78.8195 110.569 77.7147 109.285L68.903 118.1L76.2915 125.488L85.1193 116.66C85.0872 116.634 85.0524 116.604 85.0203 116.577C85.0203 116.577 85.0185 116.576 85.015 116.572Z" fill="#E6E6FF"/>
<path d="M162.315 66.0237H161.92V95.4255C161.92 95.4255 161.922 95.4228 161.925 95.4201V123.241C165.229 121.269 168.38 118.998 171.333 116.441L173.037 114.916V66.0237H162.315Z" fill="#E6E6FF"/>
<path d="M161.925 95.4196C161.925 95.4196 161.925 95.4222 161.92 95.4249V116.44H161.925V95.4196Z" fill="#E6E6FF"/>
<path d="M173.037 66.0237V114.916C173.037 114.916 173.051 114.903 173.059 114.895V66.0237H173.037Z" fill="#E6E6FF"/>
<path d="M173.059 65.1707H173.037V66.024H173.059V66.0294L183.508 66.0213H173.059V65.1707Z" fill="#E6E6FF"/>
<path d="M127.907 132.417V91.9858H116.947V132.583H127.864V132.417C127.878 132.417 127.894 132.42 127.907 132.417Z" fill="#E6E6FF"/>
<path d="M127.908 100.527V132.417C127.908 132.417 127.878 132.417 127.865 132.417V132.583H128.036V91.9858H127.908V100.527Z" fill="#E6E6FF"/>
<path d="M116.948 120.615V109.829V98.6655V91.9858H116.916V98.6548V109.821V120.609V131.499V132.583H116.948V131.505V120.615Z" fill="#E6E6FF"/>
<path d="M183.511 66.0204C183.513 66.0821 183.513 66.1465 183.513 66.2082V66.0204H183.511Z" fill="#E6E6FF"/>
<path d="M183.464 68.5282V102.408C183.48 102.384 183.496 102.357 183.513 102.333V66.2089C183.513 66.9846 183.496 67.7577 183.464 68.5282Z" fill="#E6E6FF"/>
<path d="M0.685427 162.219V154.611H41.8796V162.219H25.2922V202.59H17.2728V162.219H0.685427ZM53.4376 154.611H63.6504L81.3345 202.59H72.4239L68.7911 192.035H48.3654L44.7327 202.59H35.7536L53.4376 154.611ZM50.6273 184.495H66.5292L58.5783 161.191L50.6273 184.495ZM106.403 202.59L101.331 185.729H94.7506V202.59H86.7311V154.611H104.484C116.273 154.611 122.785 159.82 122.785 170.101C122.785 178.121 118.878 182.713 109.899 184.906L113.326 195.051H122.716V202.59H106.403ZM104.004 162.219H94.7506V178.189H103.661C110.721 178.189 114.354 175.927 114.354 170.101C114.354 164.549 110.995 162.219 104.004 162.219ZM147.581 203.619C137.231 203.619 127.772 193.611 127.772 178.601C127.772 163.59 137.3 153.788 151.556 153.788C156.697 153.788 161.564 155.227 165.813 157.489L163.688 164.892C159.987 162.904 156.149 161.602 151.968 161.602C142.303 161.602 136.203 167.976 136.203 178.601C136.203 189.225 142.44 195.805 149.02 195.805C154.572 195.805 158.753 191.075 159.576 184.152H148.609V176.544H167.801V202.59H161.564V190.321C159.987 197.176 155.943 203.619 147.581 203.619ZM175.957 154.611H206.39V162.219H183.977V173.871H204.951V181.411H183.977V194.982H206.39V202.59H175.957V154.611ZM210.597 162.219V154.611H251.792V162.219H235.204V202.59H227.185V162.219H210.597Z" fill="#E6E6FF"/>
<path d="M25.9091 266.253C12.0635 266.253 2.46754 256.246 2.46754 241.235C2.46754 226.224 12.0635 216.217 25.9091 216.217C39.6862 216.217 49.2822 226.224 49.2822 241.235C49.2822 256.246 39.6862 266.253 25.9091 266.253ZM25.9091 258.439C35.1624 258.439 40.8514 251.311 40.8514 241.235C40.8514 231.159 35.1624 224.031 25.9091 224.031C16.5873 224.031 10.8983 231.159 10.8983 241.235C10.8983 251.311 16.5873 258.439 25.9091 258.439ZM92.7302 234.792C92.7302 245.965 85.8759 252.408 73.9495 252.408H64.6963V265.225H56.6768V217.245H73.9495C85.8759 217.245 92.7302 223.62 92.7302 234.792ZM84.2309 234.792C84.2309 228.144 80.6667 224.853 73.4012 224.853H64.6963V244.799H73.4012C80.6667 244.799 84.2309 241.441 84.2309 234.792ZM95.4002 224.853V217.245H136.594V224.853H120.007V265.225H111.987V224.853H95.4002ZM142.221 265.225V217.245H150.241V265.225H142.221ZM181.067 266.253C167.222 266.253 157.626 256.246 157.626 241.235C157.626 226.224 167.222 216.217 181.067 216.217C194.844 216.217 204.44 226.224 204.44 241.235C204.44 256.246 194.844 266.253 181.067 266.253ZM181.067 258.439C190.321 258.439 196.01 251.311 196.01 241.235C196.01 231.159 190.321 224.031 181.067 224.031C171.745 224.031 166.056 231.159 166.056 241.235C166.056 251.311 171.745 258.439 181.067 258.439ZM211.835 265.225V217.245H219.854L242.405 251.517V217.245H250.424V265.225H242.405L219.854 230.954V265.225H211.835Z" fill="#E6E6FF"/>
</svg>
